PathFileType  4	(X/Y/Z) C:\Users\antoi\Documents\MyRepositories\mobilecap\ResultsAnalysis
DataRate	CameraRate	NumFrames	NumMarkers	Units	OrigDataRate	OrigDataStartFrame	OrigNumFrames
100.0	100.0	4	51	mm	100.0	65	171
Frame#	Time	r_knee			r_shank_antsup			r_ankle			r_calc			r_5meta			r_toe			L_knee			L_shank_antsup			L_ankle			L_calc			L_5meta			L_toe			r_sh2			r_sh3			r_sh4			L_sh2			L_sh3			r_thigh1			r_thigh2			r_thigh3			r_thigh4			r_thigh5			L_thigh1			L_thigh2			L_thigh3			L_thigh4			r.ASIS			r.PSIS			L.ASIS			L.PSIS			C7			R_Shoulder			L_Shoulder			R_Sternum			L_Sternum			R_humerus			R_elbow_med			R_elbow_lat			R_forearm			R_wrist_radius			R_wrist_ulna			L_humerus			L_elbow_med			L_elbow_lat			L_forearm			L_wrist_radius			L_wrist_ulna			R_HJC			L_HJC			R_HJC_reg			L_HJC_reg			
		X1	Y1	Z1	X2	Y2	Z2	X3	Y3	Z3	X4	Y4	Z4	X5	Y5	Z5	X6	Y6	Z6	X7	Y7	Z7	X8	Y8	Z8	X9	Y9	Z9	X10	Y10	Z10	X11	Y11	Z11	X12	Y12	Z12	X13	Y13	Z13	X14	Y14	Z14	X15	Y15	Z15	X16	Y16	Z16	X17	Y17	Z17	X18	Y18	Z18	X19	Y19	Z19	X20	Y20	Z20	X21	Y21	Z21	X22	Y22	Z22	X23	Y23	Z23	X24	Y24	Z24	X25	Y25	Z25	X26	Y26	Z26	X27	Y27	Z27	X28	Y28	Z28	X29	Y29	Z29	X30	Y30	Z30	X31	Y31	Z31	X32	Y32	Z32	X33	Y33	Z33	X34	Y34	Z34	X35	Y35	Z35	X36	Y36	Z36	X37	Y37	Z37	X38	Y38	Z38	X39	Y39	Z39	X40	Y40	Z40	X41	Y41	Z41	X42	Y42	Z42	X43	Y43	Z43	X44	Y44	Z44	X45	Y45	Z45	X46	Y46	Z46	X47	Y47	Z47	X48	Y48	Z48	X49	Y49	Z49	X50	Y50	Z50	X51	Y51	Z51	

65	0.64000000	387.75258	597.51480	-106.10635	366.59451	445.37505	-122.93707	185.82167	123.06313	-159.90367	127.49902	114.10811	-223.78742	308.01833	39.38195	-131.50541	353.54471	58.04489	-180.95145	675.42294	593.09530	-383.19953	786.18306	430.38239	-363.66111	832.81420	117.30504	-346.73450	794.65580	71.65775	-277.91826	999.70380	92.09890	-371.27720	1018.28631	150.71928	-324.21074	328.58129	340.35142	-139.15179	304.53967	459.00502	-81.76005	260.92070	354.51565	-90.95532	713.88008	408.68186	-409.88460	748.64227	296.85144	-388.07584	500.58010	870.61674	-54.35695	492.96206	759.08469	-66.19557	426.59499	743.85067	-61.05735	390.88978	885.89038	-76.99130	375.17899	769.28471	-79.29960	648.07876	890.10524	-398.46806	684.02662	760.63342	-391.52333	542.96337	865.87698	-411.78874	583.06693	732.69328	-411.26846	604.11009	1151.39287	-97.35324	417.23011	1183.69110	-187.93577	596.87122	1135.42470	-376.16442	414.77147	1179.64257	-279.98245	520.22940	1667.66638	-259.01139	584.27878	1608.65551	-85.52626	581.07031	1619.28158	-436.19763	645.12140	1560.40518	-228.17102	647.72793	1560.47036	-284.91297	527.07997	1357.80730	16.72070	415.65858	1258.17340	6.84685	438.56116	1287.55693	73.20857	537.04113	1096.90855	106.02398	573.06233	1008.01379	109.74801	548.24204	1007.12066	137.63951	551.14640	1322.44057	-490.11375	449.97790	1259.86434	-448.38306	474.65167	1251.28734	-520.65650	552.28431	1059.17876	-534.47093	579.21256	984.25364	-522.49040	554.65253	984.75938	-547.21489	522.87038	1056.57642	-131.74519	512.77692	1049.35498	-328.82796	530.81225	1065.64231	-131.85989	525.89825	1057.54185	-315.99065	
66	0.65000000	396.17361	597.29360	-105.58554	373.10987	445.34115	-122.32877	187.52570	125.67624	-159.32068	129.19885	117.70935	-223.50464	308.27602	39.45454	-131.42498	353.94195	57.90262	-181.12145	683.16250	590.18936	-381.82047	792.19658	426.27471	-361.99763	835.33938	113.04907	-344.38252	797.16059	68.14426	-275.20324	1001.77506	86.78427	-369.62327	1021.12870	144.97938	-322.33144	333.52560	340.85586	-138.56879	310.92824	460.06199	-81.63578	265.89432	356.18420	-90.72413	719.61193	405.14010	-408.12913	753.10718	293.03484	-386.04569	510.16525	870.03103	-53.61304	502.11436	758.49980	-65.34472	435.53312	743.64997	-60.67812	400.77605	885.80621	-77.35070	384.31034	769.33249	-79.29225	659.33471	887.76778	-397.24758	693.88701	757.93435	-390.12493	553.92592	864.59197	-410.87387	592.72733	731.08572	-410.23362	615.28434	1150.52894	-96.54039	429.06298	1182.64917	-188.50728	609.90398	1133.66710	-375.49653	427.16729	1178.41278	-280.51255	532.14247	1666.25345	-263.21800	595.44835	1609.17749	-88.73898	593.98733	1615.93212	-439.62711	656.75651	1559.28882	-230.63181	659.86191	1558.92794	-287.39154	536.54209	1359.50139	15.42918	424.57528	1260.40560	5.84152	447.18469	1290.31242	71.92277	543.84314	1099.06744	107.29839	578.93991	1009.80140	112.13599	554.07961	1009.54659	139.81474	563.97227	1318.75883	-491.32398	463.13541	1256.32688	-449.08697	487.55578	1247.39397	-521.36662	564.38273	1055.00494	-534.80933	591.11666	980.01081	-522.69293	566.34573	980.50976	-547.26398	534.20680	1055.65698	-131.23583	525.39451	1047.84312	-328.35538	542.24892	1064.51856	-131.33032	538.45512	1056.03356	-315.57657	
67	0.66000000	405.19658	597.14347	-104.93939	380.00372	445.32586	-121.57714	189.44830	128.57591	-158.49860	131.13267	121.64270	-223.07864	308.57450	39.51742	-131.31462	354.33173	57.68820	-181.35606	690.60442	587.41069	-380.51782	798.10069	422.47750	-360.36846	838.00694	109.20955	-342.11571	799.52108	65.48036	-272.58770	1003.74092	81.25697	-367.84446	1024.18732	138.79242	-320.17937	338.77886	341.45123	-137.81676	317.67091	461.25842	-81.43727	271.18083	358.03073	-90.37415	725.21277	401.84549	-406.32936	757.59582	289.52822	-383.98464	520.02060	869.52880	-52.79926	511.58749	757.98924	-64.37213	444.73822	743.49622	-60.23263	410.92746	885.76361	-77.81183	393.81603	769.37107	-79.33208	670.60106	885.50357	-396.14813	703.57096	755.26986	-388.89371	564.85483	863.52931	-409.88523	602.15361	729.66581	-409.13129	626.66639	1149.76282	-95.74589	441.05809	1181.64875	-189.05211	623.14102	1132.04570	-374.80790	439.67965	1177.27564	-281.03871	544.19591	1664.88594	-267.58592	606.74680	1609.77307	-92.11265	607.07255	1612.53603	-443.19438	668.61574	1558.28331	-233.21985	672.13367	1557.42838	-289.99414	546.05341	1361.33630	14.02069	433.49870	1262.82205	4.73022	455.80150	1293.25759	70.53752	550.56703	1101.42442	108.51408	584.69595	1011.81271	114.49935	559.75749	1012.19143	141.94857	576.92233	1315.03888	-492.59382	476.43759	1252.76601	-449.84592	500.58637	1243.46396	-522.12576	576.57287	1050.77134	-535.11968	603.10625	975.72694	-522.84213	578.11613	976.20530	-547.27945	545.75478	1054.81652	-130.74318	538.21337	1046.44233	-327.89153	553.97586	1063.42348	-130.82005	551.21357	1054.65875	-315.16147	
68	0.67000000	414.79359	597.05556	-104.13901	387.26752	445.34706	-120.64370	191.64507	131.70493	-157.48141	133.34193	125.95235	-222.47276	308.93031	39.55893	-131.17278	354.72985	57.37487	-181.58621	697.76124	584.86356	-379.35791	804.07465	419.18311	-358.79471	841.16845	105.95089	-340.01798	802.03378	63.81295	-270.20921	1005.94148	75.62497	-365.92086	1027.76100	132.28194	-317.75490	344.34656	342.16075	-136.84469	324.81073	462.60805	-81.11593	276.78442	360.08927	-89.87790	730.88694	398.95344	-404.53520	762.39872	286.50216	-381.96333	530.14702	869.13281	-51.90720	521.37805	757.58043	-63.24693	454.21538	743.40634	-59.69809	421.36229	885.77290	-78.36501	403.75284	769.40432	-79.45364	681.80866	883.36506	-395.22701	713.00107	752.68716	-387.91262	575.68676	862.75354	-408.81435	611.25622	728.48559	-408.00046	638.28726	1149.13755	-94.95890	453.21107	1180.72470	-189.53198	636.53214	1130.64782	-374.08131	452.27060	1176.30361	-281.52152	556.39508	1663.59850	-272.11166	618.17007	1610.46643	-95.64859	620.29778	1609.13617	-446.89331	680.68352	1557.41122	-235.94757	684.53251	1556.00049	-292.73238	555.61389	1363.32999	12.47490	442.44518	1265.44331	3.49564	464.45002	1296.40586	69.04048	557.21530	1104.00650	109.64846	590.33485	1014.07475	116.81165	565.28312	1015.07817	144.02152	590.02262	1311.31007	-493.93116	489.88204	1249.20838	-450.66181	513.75681	1239.52125	-522.93384	588.86125	1046.50557	-535.39659	615.16105	971.41240	-522.93482	589.96558	971.87674	-547.24917	557.52894	1054.09798	-130.25948	551.20640	1045.22736	-327.42989	566.04030	1062.36600	-130.32357	564.15339	1053.50203	-314.73603	
